<svg width="200" height="280" viewBox="0 0 200 280" xmlns="http://www.w3.org/2000/svg">
  <!-- Shield -->
  <path d="M100 12 L148 33 L148 94 Q148 137 100 158 Q52 137 52 94 L52 33 Z" fill="#c9a84c" opacity="0.05"/>
  <path d="M100 12 L148 33 L148 94 Q148 137 100 158 Q52 137 52 94 L52 33 Z" fill="none" stroke="#c9a84c" stroke-width="2"/>
  <path d="M100 24 L140 42 L140 94 Q140 131 100 148 Q60 131 60 94 L60 42 Z" fill="none" stroke="#c9a84c" stroke-width="0.6" opacity="0.35"/>
  <!-- Stolpci — baza y=128, centrirani na x=100, znotraj ščita -->
  <rect x="74" y="108" width="10" height="20" rx="2" fill="#c9a84c" opacity="0.38"/>
  <rect x="88" y="96" width="10" height="32" rx="2" fill="#c9a84c" opacity="0.58"/>
  <rect x="102" y="82" width="10" height="46" rx="2" fill="#c9a84c" opacity="0.78"/>
  <rect x="116" y="66" width="10" height="62" rx="2" fill="#c9a84c"/>
  <!-- Trend linija -->
  <polyline points="79,106 93,94 107,80 121,64 132,52" fill="none" stroke="#ffffff" stroke-width="2" stroke-linecap="round"/>
  <circle cx="132" cy="52" r="5" fill="#c9a84c"/>
  <circle cx="132" cy="52" r="2.5" fill="#ffffff"/>
  <!-- FinCoach -->
  <text x="100" y="192" text-anchor="middle" font-family="Inter, sans-serif" font-size="26" font-weight="600" fill="#ffffff" letter-spacing="1">FinCoach</text>
  <line x1="52" y1="200" x2="148" y2="200" stroke="#c9a84c" stroke-width="0.8" opacity="0.4"/>
  <!-- VIP oval -->
  <ellipse cx="100" cy="222" rx="37" ry="14" fill="#c9a84c" opacity="0.10"/>
  <ellipse cx="100" cy="222" rx="37" ry="14" fill="none" stroke="#c9a84c" stroke-width="1.8"/>
  <text x="100" y="227" text-anchor="middle" font-family="Inter, sans-serif" font-size="11" font-weight="700" fill="#c9a84c" letter-spacing="5">VIP</text>
</svg>
