<svg width="64" height="64" viewBox="0 0 64 64" xmlns="http://www.w3.org/2000/svg">
  <rect width="64" height="64" rx="12" fill="#1a2744"/>
  <path d="M32 6 L50 14 L50 36 Q50 50 32 58 Q14 50 14 36 L14 14 Z" fill="#c9a84c" opacity="0.08"/>
  <path d="M32 6 L50 14 L50 36 Q50 50 32 58 Q14 50 14 36 L14 14 Z" fill="none" stroke="#c9a84c" stroke-width="2"/>
  <path d="M32 14 L44 20 L44 36 Q44 46 32 52 Q20 46 20 36 L20 20 Z" fill="none" stroke="#c9a84c" stroke-width="0.8" opacity="0.35"/>
  <!-- Stolpci -->
  <rect x="18" y="39" width="7" height="10" rx="1" fill="#c9a84c" opacity="0.4"/>
  <rect x="28" y="32" width="7" height="17" rx="1" fill="#c9a84c" opacity="0.7"/>
  <rect x="38" y="23" width="7" height="26" rx="1" fill="#c9a84c"/>
  <!-- Trend linija -->
  <polyline points="19,37 29,30 39,21 49,12" fill="none" stroke="#ffffff" stroke-width="2.5" stroke-linecap="round"/>
  <circle cx="49" cy="12" r="4" fill="#c9a84c"/>
  <circle cx="49" cy="12" r="2" fill="#ffffff"/>
</svg>
