<svg width="320" height="100" viewBox="0 0 320 100" xmlns="http://www.w3.org/2000/svg">
  <!-- Za belo ozadje — dokumenti, dopisi, tisk -->
  <path d="M44 8 L80 25 L80 62 Q80 86 44 98 Q8 86 8 62 L8 25 Z" fill="#1a2744" opacity="0.06"/>
  <path d="M44 8 L80 25 L80 62 Q80 86 44 98 Q8 86 8 62 L8 25 Z" fill="none" stroke="#1a2744" stroke-width="2"/>
  <path d="M44 18 L72 32 L72 62 Q72 80 44 90 Q16 80 16 62 L16 32 Z" fill="none" stroke="#1a2744" stroke-width="0.6" opacity="0.35"/>
  <!-- Stolpci -->
  <rect x="18" y="65" width="9" height="18" rx="1.5" fill="#1a2744" opacity="0.38"/>
  <rect x="30" y="56" width="9" height="27" rx="1.5" fill="#1a2744" opacity="0.58"/>
  <rect x="42" y="45" width="9" height="38" rx="1.5" fill="#1a2744" opacity="0.78"/>
  <rect x="54" y="32" width="9" height="51" rx="1.5" fill="#1a2744"/>
  <!-- Trend linija -->
  <polyline points="19,63 31,54 43,43 55,30 66,20" fill="none" stroke="#1a2744" stroke-width="2" stroke-linecap="round"/>
  <circle cx="66" cy="20" r="4.5" fill="#1a2744"/>
  <circle cx="66" cy="20" r="2" fill="#ffffff"/>
  <!-- FinCoach -->
  <text x="102" y="52" font-family="Inter, sans-serif" font-size="28" font-weight="600" fill="#1a2744" letter-spacing="1">FinCoach</text>
  <line x1="102" y1="60" x2="310" y2="60" stroke="#1a2744" stroke-width="0.8" opacity="0.35"/>
  <!-- VIP oval -->
  <ellipse cx="140" cy="78" rx="36" ry="13" fill="#1a2744" opacity="0.07"/>
  <ellipse cx="140" cy="78" rx="36" ry="13" fill="none" stroke="#1a2744" stroke-width="1.8"/>
  <text x="140" y="82" text-anchor="middle" font-family="Inter, sans-serif" font-size="11" font-weight="700" fill="#1a2744" letter-spacing="5">VIP</text>
</svg>
